<svg width="44" height="45" viewBox="0 0 44 45" fill="none" xmlns="http://www.w3.org/2000/svg">
<g id="cil:cart">
<path id="Vector" d="M13.75 8.26312V11.0131H39.875V16.4568L36.8242 26.1381H12.8848L9.44728 1.38477H1.375V4.13477H7.05272L10.4902 28.8881H38.841L42.625 16.8798V8.26312H13.75ZM15.2096 31.6643C13.7514 31.666 12.3534 32.246 11.3223 33.2771C10.2912 34.3082 9.71122 35.7062 9.70956 37.1643C9.70956 38.623 10.289 40.022 11.3205 41.0534C12.3519 42.0849 13.7509 42.6643 15.2096 42.6643C16.6683 42.6643 18.0672 42.0849 19.0986 41.0534C20.1301 40.022 20.7096 38.623 20.7096 37.1643C20.7079 35.7061 20.1279 34.3081 19.0968 33.2771C18.0657 32.246 16.6678 31.666 15.2096 31.6643ZM15.2096 39.9143C14.6657 39.9143 14.134 39.753 13.6817 39.4509C13.2295 39.1487 12.877 38.7192 12.6689 38.2167C12.4608 37.7142 12.4063 37.1613 12.5124 36.6278C12.6185 36.0944 12.8804 35.6044 13.265 35.2198C13.6496 34.8352 14.1396 34.5733 14.6731 34.4672C15.2065 34.3611 15.7594 34.4155 16.2619 34.6237C16.7644 34.8318 17.1939 35.1843 17.4961 35.6365C17.7983 36.0887 17.9596 36.6204 17.9596 37.1643C17.9587 37.8934 17.6687 38.5924 17.1532 39.1079C16.6376 39.6235 15.9386 39.9135 15.2096 39.9143ZM34.4596 31.6643C33.0014 31.666 31.6034 32.246 30.5723 33.2771C29.5412 34.3082 28.9612 35.7062 28.9596 37.1643C28.9596 38.623 29.539 40.022 30.5705 41.0534C31.6019 42.0849 33.0009 42.6643 34.4596 42.6643C35.9183 42.6643 37.3172 42.0849 38.3486 41.0534C39.3801 40.022 39.9596 38.623 39.9596 37.1643C39.9579 35.7061 39.3779 34.3081 38.3468 33.2771C37.3157 32.246 35.9178 31.666 34.4596 31.6643ZM34.4596 39.9143C33.9157 39.9143 33.384 39.753 32.9317 39.4509C32.4795 39.1487 32.127 38.7192 31.9189 38.2167C31.7108 37.7142 31.6563 37.1613 31.7624 36.6278C31.8685 36.0944 32.1304 35.6044 32.515 35.2198C32.8996 34.8352 33.3896 34.5733 33.9231 34.4672C34.4565 34.3611 35.0094 34.4155 35.5119 34.6237C36.0144 34.8318 36.4439 35.1843 36.7461 35.6365C37.0483 36.0887 37.2096 36.6204 37.2096 37.1643C37.2087 37.8934 36.9187 38.5924 36.4032 39.1079C35.8876 39.6235 35.1886 39.9135 34.4596 39.9143Z" fill="#01260E"/>
</g>
</svg>
