<svg width="48" height="48" viewBox="0 0 48 48" fill="none" xmlns="http://www.w3.org/2000/svg">
<g clip-path="url(#clip0_356_558)">
<path d="M6 7.25H2.75V4.75H8.06379L9.74123 8.31902L9.94379 8.75H10.42H40C40.6858 8.75 41.25 9.31421 41.25 10C41.25 10.229 41.195 10.437 41.1088 10.5879L41.1087 10.5879L41.1033 10.5977L33.9433 23.5777L33.9424 23.5794C33.3918 24.5833 32.3215 25.25 31.1 25.25H16.2H15.7574L15.5434 25.6375L13.7434 28.8975L13.6961 28.9832L13.6724 29.0781L13.6124 29.3181L13.59 29.4077V29.5C13.59 30.1942 14.1458 30.75 14.84 30.75H37.25V33.25H14C12.2142 33.25 10.75 31.7858 10.75 30C10.75 29.4286 10.8969 28.8971 11.1512 28.4521L11.1513 28.4521L11.1569 28.442L13.8569 23.542L14.0422 23.2056L13.8776 22.8586L6.67764 7.67859L6.47436 7.25H6ZM10.77 40C10.77 38.2093 12.2191 36.75 14 36.75C15.7858 36.75 17.25 38.2142 17.25 40C17.25 41.7858 15.7858 43.25 14 43.25C12.2191 43.25 10.77 41.7907 10.77 40ZM30.77 40C30.77 38.2093 32.2191 36.75 34 36.75C35.7858 36.75 37.25 38.2142 37.25 40C37.25 41.7858 35.7858 43.25 34 43.25C32.2191 43.25 30.77 41.7907 30.77 40Z" fill="white" stroke="#8A8A8A" stroke-width="1.5"/>
</g>
<defs>
<clipPath id="clip0_356_558">
<rect width="48" height="48" fill="white"/>
</clipPath>
</defs>
</svg>
