<svg width="40" height="40" viewBox="0 0 40 40" fill="none" xmlns="http://www.w3.org/2000/svg">
<path d="M20 0.75C22.4533 0.75 24.806 1.72455 26.5407 3.45926C28.2754 5.19397 29.25 7.54675 29.25 10C29.25 12.4533 28.2754 14.806 26.5407 16.5407C24.806 18.2754 22.4533 19.25 20 19.25C17.5467 19.25 15.194 18.2754 13.4593 16.5407C11.7246 14.806 10.75 12.4533 10.75 10C10.75 7.54675 11.7246 5.19397 13.4593 3.45926C15.194 1.72455 17.5467 0.75 20 0.75ZM20 25.75C25.4339 25.75 30.3142 26.8519 33.8083 28.5989C37.3471 30.3683 39.25 32.6744 39.25 35V39.25H0.75V35C0.75 32.6744 2.6529 30.3683 6.19166 28.5989C9.68575 26.8519 14.5661 25.75 20 25.75Z" fill="white" stroke="#8A8A8A" stroke-width="1.5"/>
</svg>
